<svg width="650" height="352" viewBox="0 0 650 352" fill="none" xmlns="http://www.w3.org/2000/svg">
<g clip-path="url(#clip0_1_2)">
<path d="M111.6 174.08C121.04 175.84 128.8 180.56 134.88 188.24C140.96 195.92 144 204.72 144 214.64C144 223.6 141.76 231.52 137.28 238.4C132.96 245.12 126.64 250.4 118.32 254.24C110 258.08 100.16 260 88.8 260H16.56V92.48H85.68C97.04 92.48 106.8 94.32 114.96 98C123.28 101.68 129.52 106.8 133.68 113.36C138 119.92 140.16 127.36 140.16 135.68C140.16 145.44 137.52 153.6 132.24 160.16C127.12 166.72 120.24 171.36 111.6 174.08ZM50.16 161.6H80.88C88.88 161.6 95.04 159.84 99.36 156.32C103.68 152.64 105.84 147.44 105.84 140.72C105.84 134 103.68 128.8 99.36 125.12C95.04 121.44 88.88 119.6 80.88 119.6H50.16V161.6ZM84 232.64C92.16 232.64 98.48 230.72 102.96 226.88C107.6 223.04 109.92 217.6 109.92 210.56C109.92 203.36 107.52 197.76 102.72 193.76C97.92 189.6 91.44 187.52 83.28 187.52H50.16V232.64H84ZM241.579 190.64C241.579 195.44 241.259 199.76 240.619 203.6H143.419C144.219 213.2 147.579 220.72 153.499 226.16C159.419 231.6 166.699 234.32 175.339 234.32C187.819 234.32 196.699 228.96 201.979 218.24H238.219C234.379 231.04 227.019 241.6 216.139 249.92C205.259 258.08 191.899 262.16 176.059 262.16C163.259 262.16 151.739 259.36 141.499 253.76C131.419 248 123.499 239.92 117.739 229.52C112.139 219.12 109.339 207.12 109.339 193.52C109.339 179.76 112.139 167.68 117.739 157.28C123.339 146.88 131.179 138.88 141.259 133.28C151.339 127.68 162.939 124.88 176.059 124.88C188.699 124.88 199.979 127.6 209.899 133.04C219.979 138.48 227.739 146.24 233.179 156.32C238.779 166.24 241.579 177.68 241.579 190.64ZM206.779 181.04C206.619 172.4 203.499 165.52 197.419 160.4C191.339 155.12 183.899 152.48 175.099 152.48C166.779 152.48 159.739 155.04 153.979 160.16C148.379 165.12 144.939 172.08 143.659 181.04H206.779Z" fill="white"/>
<path d="M399.76 123.04L317.44 318.88H281.68L310.48 252.64L257.2 123.04H294.88L329.2 215.92L364 123.04H399.76ZM440.913 258.16C428.113 258.16 416.593 255.36 406.353 249.76C396.113 244 388.033 235.92 382.113 225.52C376.353 215.12 373.473 203.12 373.473 189.52C373.473 175.92 376.433 163.92 382.353 153.52C388.433 143.12 396.673 135.12 407.073 129.52C417.473 123.76 429.073 120.88 441.873 120.88C454.673 120.88 466.273 123.76 476.673 129.52C487.073 135.12 495.233 143.12 501.153 153.52C507.233 163.92 510.273 175.92 510.273 189.52C510.273 203.12 507.153 215.12 500.912 225.52C494.833 235.92 486.513 244 475.953 249.76C465.553 255.36 453.873 258.16 440.913 258.16ZM440.913 228.88C446.993 228.88 452.673 227.44 457.953 224.56C463.393 221.52 467.713 217.04 470.913 211.12C474.113 205.2 475.713 198 475.713 189.52C475.713 176.88 472.353 167.2 465.633 160.48C459.073 153.6 450.993 150.16 441.393 150.16C431.793 150.16 423.713 153.6 417.153 160.48C410.753 167.2 407.553 176.88 407.553 189.52C407.553 202.16 410.673 211.92 416.913 218.8C423.313 225.52 431.313 228.88 440.913 228.88ZM532.039 88.48V192.16C532.039 203.52 534.999 212.24 540.919 218.32C546.839 224.24 555.159 227.2 565.879 227.2C576.759 227.2 585.159 224.24 591.079 218.32C596.999 212.24 599.959 203.52 599.959 192.16V88.48H633.799V191.92C633.799 206.16 630.679 218.24 624.439 228.16C618.359 237.92 610.119 245.28 599.719 250.24C589.479 255.2 578.039 257.68 565.399 257.68C552.919 257.68 541.559 255.2 531.319 250.24C521.239 245.28 513.239 237.92 507.319 228.16C501.399 218.24 498.439 206.16 498.439 191.92V88.48H532.039Z" fill="white"/>
</g>
<defs>
<clipPath id="clip0_1_2">
<rect width="650" height="352" fill="white"/>
</clipPath>
</defs>
</svg>
