<svg width="301" height="208" viewBox="0 0 301 208" fill="none" xmlns="http://www.w3.org/2000/svg">
<g clip-path="url(#clip0_41_2)">
<path d="M111.6 102.08C121.04 103.84 128.8 108.56 134.88 116.24C140.96 123.92 144 132.72 144 142.64C144 151.6 141.76 159.52 137.28 166.4C132.96 173.12 126.64 178.4 118.32 182.24C110 186.08 100.16 188 88.8 188H16.56V20.48H85.68C97.04 20.48 106.8 22.32 114.96 26C123.28 29.68 129.52 34.8 133.68 41.36C138 47.92 140.16 55.36 140.16 63.68C140.16 73.44 137.52 81.6 132.24 88.16C127.12 94.72 120.24 99.36 111.6 102.08ZM50.16 89.6H80.88C88.88 89.6 95.04 87.84 99.36 84.32C103.68 80.64 105.84 75.44 105.84 68.72C105.84 62 103.68 56.8 99.36 53.12C95.04 49.44 88.88 47.6 80.88 47.6H50.16V89.6ZM84 160.64C92.16 160.64 98.48 158.72 102.96 154.88C107.6 151.04 109.92 145.6 109.92 138.56C109.92 131.36 107.52 125.76 102.72 121.76C97.92 117.6 91.44 115.52 83.28 115.52H50.16V160.64H84Z" fill="white"/>
<path d="M189.68 20.48V124.16C189.68 135.52 192.64 144.24 198.56 150.32C204.48 156.24 212.8 159.2 223.52 159.2C234.4 159.2 242.8 156.24 248.72 150.32C254.64 144.24 257.6 135.52 257.6 124.16V20.48H291.44V123.92C291.44 138.16 288.32 150.24 282.08 160.16C276 169.92 267.76 177.28 257.36 182.24C247.12 187.2 235.68 189.68 223.04 189.68C210.56 189.68 199.2 187.2 188.96 182.24C178.88 177.28 170.88 169.92 164.96 160.16C159.04 150.24 156.08 138.16 156.08 123.92V20.48H189.68Z" fill="white"/>
</g>
<defs>
<clipPath id="clip0_41_2">
<rect width="301" height="208" fill="white"/>
</clipPath>
</defs>
</svg>
